<svg id="Layer_1" data-name="Layer 1" xmlns="http://www.w3.org/2000/svg" viewBox="0 0 261.91 261.52"><defs><style>.cls-1{fill:#d10214;}.cls-2{fill:#fff;}.cls-3{fill:#191917;}</style></defs><title>bundesliga-logo</title><path class="cls-1" d="M125,334.06H386.11V125.24H125Z" transform="translate(-125.04 -125.24)"/><path class="cls-2" d="M357.08,199.41a14.51,14.51,0,1,0,14.5,14.5,14.53,14.53,0,0,0-14.5-14.5m-16.85,35.78c.15.51-.33.84-1.27,1.57l-.57.3.21.39c.12.21-.09.6-.48.78l-.87.45c-.39.18-.81.15-.93-.09l-.18-.36-1.09.54.18.36c.12.24-.12.6-.51.78l-.87.42c-.42.18-.84.12-1-.12l-.15-.33c-3.35,1.57-7.08,3.23-10.94,5l.21.51c.12.21-.12.57-.51.78l-.87.39c-.39.18-.81.12-.93-.12l-.21-.48-1.27.6.24.48c.12.27-.12.63-.51.81l-.87.39c-.39.18-.81.15-.93-.12l-.21-.48c-1.78.72-3.68,1-5.06-1.6-.6-1.21-.63-4-1.09-5.46a1.45,1.45,0,0,0-1.15-.9c-17-3.26-22.76.36-33.67-2.32-3.41-.84-5.28-4-9.5-4-9.19-.27-11.94-.15-21.91-.54-.42,1.48-.48,1.78-.48,1.78L208,234.44l5.34,2.65,1.75,15.46s-1.42.42-1.84.48c.33,3.1.66,7.26.84,11,.15,3.38.33,6.9.3,9.16a8.07,8.07,0,0,1-3.65,7c-.3.24-1.66,1.15-3.23,2.08s-3.44,1.9-4.4,2.38c.09.42.39.84.48,1.18-21.34,10.31-47.78,13.84-56.34,30.23-1,1.9-4.49.9-4.58-1.15,0-.93,0-2.47,0-3.29l-.33,0c-.27,0-.48-.39-.45-.81l0-1c0-.45.27-.78.54-.78l.36,0a21,21,0,0,1,.54-2.8l-.33-.12c-.24-.09-.33-.51-.18-.93l.3-.9c.18-.42.48-.66.75-.57l.33.09c1.51-3.56,4.46-5.12,5.82-8.47l-.21-.09c-.27-.09-.36-.51-.21-.93l.3-.9c.18-.39.51-.66.75-.57l.24.06c.21-.48.45-1,.72-1.54l-.3-.21c-.24-.15-.24-.57,0-.93l.51-.81c.24-.36.63-.54.84-.39l.12.06.15,0c.06,0,.09,0,.15-.06a5.79,5.79,0,0,1,.45-.42,3.9,3.9,0,0,1,4.52-.06c1.33.81,6.57,3.8,11.6-.75,8.32-7.45,18.06-17.6,25.38-17.94-2-4.31-5.43-13.26-5.82-16.58l-2.47-.51c-1.27-2.74-4.4-15.46-5.28-25,0,0-1-10.31,0-13.93-.57-.06-1.6.78-1.9.78-1.33-3.29,3-31,7.32-39.13l6.6-2.62c-.69-.09-5.46-.3-18-1.33-7,6.18-15.1,12.87-19.2,16.52-.69.51-1.87,4.46-1.87,4.46s-2.08,1.84-4,3.17c-2.56,1.81-8.77,3.17-10.1,1.06-.33-.51-.27-.75,0-1.06,1-1,4.58-2.74,5.82-5-2,1-4.19,2-5.94,1.87-.75,0-1.12-1.9-.15-2.23,2.62-1.12,4.73-1.6,6.27-3.8s3.32-3.5,5.73-3.56c0,0,11.67-15.22,18.54-22.46,1.9-2,5.43-1.33,5.43-1.33l.6-2.32s23.57-2.8,34.54.84C211,151,214,142.2,224.4,142.2c5.37,0,13.26,4.73,14.32,10.49.33,1.78-.69,3-1.24,5.18-.93,3.41.36,7.14,0,8.32-.3,1-1.42.9-2.35,2.23a27.52,27.52,0,0,0-2.17,4.07l-1.42,3.2-7.35-.54c-2.68,5.79-8.2,17.63-10.13,29.33,5.79.51,31.92,4.28,31.92,4.28l.63,2.14s11,1.33,20,5.61c2,.48,7.08-.27,10.4,1.27.24-.15.78-.69,1-.84,11.76,3.62,21.46,9.77,32.83,12.51,0,0,5.28,1.3,7.08,1.66a72.92,72.92,0,0,0,9.07,1.18c3.65.27,5.67.21,8.32.36,1.87.12,4.16-.18,4.91,2.56" transform="translate(-125.04 -125.24)"/><path class="cls-3" d="M372.52,362.62l-4.07,12.69h8.08Zm5.43,17.75h-11l-2,5.88h-7l10-28.06h9l10,28.06H379.9ZM355.06,370v15.25a30.85,30.85,0,0,1-9.71,1.48c-9.77,0-14.35-4.34-14.35-14.56s4.58-14.53,14.35-14.53a25.19,25.19,0,0,1,9.25,1.57v5.43a27.53,27.53,0,0,0-8.71-1.48c-5.88,0-7.72,2.38-7.72,9,0,6.93,1.93,9.22,7.48,9.22a29.08,29.08,0,0,0,3.68-.24v-6.27h-5.21V370ZM319,358.19h7v28.06h-7Zm-23.42,0h7v22.73h12.06v5.34H295.59Zm-25.62,27v-5.46a29.06,29.06,0,0,0,9.37,1.51c3.23,0,4.64-.84,4.64-3,0-1.9-.6-2.44-3.2-3l-4.67-1c-4.85-1-6.48-3-6.48-7.78,0-6.15,3.62-8.8,10.91-8.8a25.55,25.55,0,0,1,9,1.51v5.49a26.2,26.2,0,0,0-8.53-1.48c-3.47,0-4.64.9-4.64,3.1,0,1.81.81,2.32,3.07,2.8l4.52,1c5.31,1.15,6.75,2.92,6.75,7.93,0,6-3.71,8.77-11.27,8.77a27.81,27.81,0,0,1-9.44-1.6m-24.08-27h19.65v5.37H252.88v5.91H263.4v5.28H252.88v6.18h12.93v5.34H245.89Zm-17.72,22.73c4.1,0,5.46-2.14,5.46-8.71s-1.36-8.65-5.46-8.65h-5.31v17.36Zm-12.33-22.73h12.54c9.83,0,12.39,4,12.39,14,0,9.71-2.8,14-12.39,14H215.83Zm-5.76,0v28.06h-8.53L189.61,366v20.29H183.1V358.19h8.53l11.91,20.32V358.19Zm-57.27,18.93V358.19h7V376.9c0,3.1,1.42,4.28,5.21,4.28s5.18-1.18,5.18-4.28V358.19h7v18.93c0,6.6-3.83,9.65-12.21,9.65s-12.21-3-12.21-9.65m-11.39.81c0-2.59-1-3.68-3.41-3.68h-6.3v7.26H138c2.5,0,3.41-1.06,3.41-3.59m-9.71-8h5.88c2.35,0,3.41-1,3.41-3.44s-1-3.53-3.41-3.53h-5.88Zm16.52,8.68c0,5-2.32,7.66-8.65,7.66H125V358.19h14c6.54,0,8.8,2.59,8.8,7.32,0,3.65-1.36,5.28-5.24,6.24l-.72.21.63.12c4.37,1,5.73,2.59,5.73,6.51" transform="translate(-125.04 -125.24)"/></svg>