<svg id="Layer_1" data-name="Layer 1" xmlns="http://www.w3.org/2000/svg" viewBox="0 0 279.5 489.03"><defs><style>.cls-1{fill:#b6b6b7;}.cls-2{fill:#50b748;}.cls-3{fill:#838383;}.cls-4{fill:#091c3e;}.cls-5{fill:#06c167;}.cls-6{fill:#fff;}.cls-7{fill:#cdfb0a;}</style></defs><title>ligue-1-logo.</title><g id="_Group_" data-name="&lt;Group&gt;"><g id="_Group_2" data-name="&lt;Group&gt;"><g id="_Group_3" data-name="&lt;Group&gt;"><g id="_Group_4" data-name="&lt;Group&gt;"><path id="_Compound_Path_" data-name="&lt;Compound Path&gt;" class="cls-1" d="M227.48,526l4.75-5.93h4.32l-5.38,6,5.65,8.15h-4.49l-3.21-5.54-1.77,1.61v3.93h-3.44V515.07h3.44S227.1,526.48,227.48,526Z" transform="translate(-116.25 -50.97)"/></g><path id="_Compound_Path_2" data-name="&lt;Compound Path&gt;" class="cls-1" d="M193.27,521l-1.19,2.44a7.33,7.33,0,0,0-3.41-1c-1.06,0-1.76.54-1.76,1.35s.46,1.08,1.73,1.41l1.68.43a4.32,4.32,0,0,1,2.76,1.57,3.67,3.67,0,0,1,.76,2.36c0,2.87-2.38,4.82-5.93,4.82a12.33,12.33,0,0,1-5.61-1.6l1.3-2.65a10.14,10.14,0,0,0,4.61,1.57,1.7,1.7,0,0,0,1.84-1.57c0-.95-.68-1.44-2.14-1.71l-1.63-.3a4.89,4.89,0,0,1-2.55-1.41,4.2,4.2,0,0,1-.79-2.49c0-2.71,2.14-4.52,5.36-4.52A10.41,10.41,0,0,1,193.27,521Z" transform="translate(-116.25 -50.97)"/><path id="_Compound_Path_3" data-name="&lt;Compound Path&gt;" class="cls-1" d="M205.83,530.26l1.41,2.17a8,8,0,0,1-5.23,1.92c-4,0-6.56-2.82-6.56-7.18,0-2.49.51-4.14,1.73-5.5a5.45,5.45,0,0,1,4.36-1.87,5.67,5.67,0,0,1,4,1.46c1.27,1.3,1.84,3.17,1.84,6.07v.84h-8v.11c0,2.14,1.06,3.36,2.93,3.36A5.42,5.42,0,0,0,205.83,530.26Zm-6.39-4.74h4.2v-.16a3.57,3.57,0,0,0-.43-2.09,1.76,1.76,0,0,0-1.6-.81c-1.38,0-2.17,1.08-2.17,3Z" transform="translate(-116.25 -50.97)"/><path id="_Compound_Path_4" data-name="&lt;Compound Path&gt;" class="cls-1" d="M219.57,530.26l1.41,2.17a8,8,0,0,1-5.23,1.92c-4,0-6.56-2.82-6.56-7.18,0-2.49.51-4.14,1.73-5.5a5.45,5.45,0,0,1,4.36-1.87,5.68,5.68,0,0,1,4,1.46c1.27,1.3,1.84,3.17,1.84,6.07v.84h-8v.11c0,2.14,1.06,3.36,2.93,3.36A5.42,5.42,0,0,0,219.57,530.26Zm-6.39-4.74h4.2v-.16a3.58,3.58,0,0,0-.43-2.09,1.76,1.76,0,0,0-1.6-.81c-1.38,0-2.17,1.08-2.17,3Z" transform="translate(-116.25 -50.97)"/></g></g><g id="_Group_5" data-name="&lt;Group&gt;"><path id="_Compound_Path_5" data-name="&lt;Compound Path&gt;" class="cls-2" d="M238.73,514.57h1.81V530.9a1.67,1.67,0,0,0,.43,1.21,1.59,1.59,0,0,0,1.2.44,3.6,3.6,0,0,0,.69-.08,4.56,4.56,0,0,0,.75-.21l.32,1.47a6,6,0,0,1-1.24.35,7.26,7.26,0,0,1-1.27.13,2.7,2.7,0,0,1-2-.71,2.66,2.66,0,0,1-.72-2Z" transform="translate(-116.25 -50.97)"/><path id="_Compound_Path_6" data-name="&lt;Compound Path&gt;" class="cls-2" d="M250.77,534.32a6.59,6.59,0,0,1-2.78-.57,6.81,6.81,0,0,1-2.18-1.56,7.08,7.08,0,0,1-1.43-2.3,7.53,7.53,0,0,1-.51-2.75,7.44,7.44,0,0,1,.52-2.78,7.28,7.28,0,0,1,1.44-2.3,7,7,0,0,1,2.18-1.57,6.41,6.41,0,0,1,2.75-.59,6.5,6.5,0,0,1,2.76.59,7,7,0,0,1,2.19,1.57,7.28,7.28,0,0,1,1.44,2.3,7.44,7.44,0,0,1,.52,2.78,7.54,7.54,0,0,1-.51,2.75,7.08,7.08,0,0,1-1.43,2.3,6.78,6.78,0,0,1-2.19,1.56A6.69,6.69,0,0,1,250.77,534.32Zm-5-7.15a5.8,5.8,0,0,0,.4,2.18,5.9,5.9,0,0,0,1.08,1.76,4.89,4.89,0,0,0,1.6,1.19,4.61,4.61,0,0,0,2,.43,4.49,4.49,0,0,0,2-.44,5.21,5.21,0,0,0,1.61-1.2,5.72,5.72,0,0,0,1.09-1.77,6.15,6.15,0,0,0,0-4.36,5.7,5.7,0,0,0-1.09-1.79,5.21,5.21,0,0,0-1.61-1.2,4.49,4.49,0,0,0-2-.44,4.4,4.4,0,0,0-1.95.44,5.16,5.16,0,0,0-1.6,1.21,5.85,5.85,0,0,0-1.09,1.8A6,6,0,0,0,245.73,527.16Z" transform="translate(-116.25 -50.97)"/><path id="_Compound_Path_7" data-name="&lt;Compound Path&gt;" class="cls-2" d="M265.23,534.24a5.74,5.74,0,0,1-2.63-.6,6.78,6.78,0,0,1-2.06-1.59,7.27,7.27,0,0,1-1.35-2.27,7.46,7.46,0,0,1-.48-2.64,8.22,8.22,0,0,1,.47-2.76,7.11,7.11,0,0,1,1.32-2.31,6.45,6.45,0,0,1,2-1.57,5.85,5.85,0,0,1,2.63-.59,5.35,5.35,0,0,1,3.1.89,8.6,8.6,0,0,1,2.24,2.25v-2.91h1.63v14a5.69,5.69,0,0,1-.55,2.55,5.49,5.49,0,0,1-1.47,1.85,6.25,6.25,0,0,1-2.16,1.12,9.08,9.08,0,0,1-2.63.37,7.66,7.66,0,0,1-3.87-.85,6.82,6.82,0,0,1-2.38-2.3l1.12-.88a5,5,0,0,0,2.19,2,6.93,6.93,0,0,0,2.94.63,6.48,6.48,0,0,0,1.92-.28,4.74,4.74,0,0,0,1.59-.83,3.91,3.91,0,0,0,1.08-1.39,4.52,4.52,0,0,0,.4-2v-2.75a5.79,5.79,0,0,1-2.19,2.11A5.89,5.89,0,0,1,265.23,534.24Zm.51-1.52a4.4,4.4,0,0,0,1.57-.29,5.27,5.27,0,0,0,1.4-.79,5.16,5.16,0,0,0,1.05-1.11,3.42,3.42,0,0,0,.56-1.25V525a5.44,5.44,0,0,0-.8-1.39,5.57,5.57,0,0,0-1.15-1.09,5.8,5.8,0,0,0-1.37-.72,4.31,4.31,0,0,0-1.48-.27,4.36,4.36,0,0,0-2.09.49,5,5,0,0,0-1.56,1.29,5.76,5.76,0,0,0-1,1.81,6.53,6.53,0,0,0-.33,2.06,5.76,5.76,0,0,0,.4,2.13,5.59,5.59,0,0,0,1.11,1.77,5.31,5.31,0,0,0,1.64,1.2A4.7,4.7,0,0,0,265.74,532.71Z" transform="translate(-116.25 -50.97)"/><path id="_Compound_Path_8" data-name="&lt;Compound Path&gt;" class="cls-2" d="M281,534.32a6.59,6.59,0,0,1-2.78-.57,6.81,6.81,0,0,1-2.17-1.56,7.07,7.07,0,0,1-1.43-2.3,7.53,7.53,0,0,1-.51-2.75,7.44,7.44,0,0,1,.52-2.78,7.27,7.27,0,0,1,1.44-2.3,7,7,0,0,1,2.17-1.57,6.41,6.41,0,0,1,2.75-.59,6.5,6.5,0,0,1,2.76.59,7,7,0,0,1,2.19,1.57,7.28,7.28,0,0,1,1.44,2.3,7.44,7.44,0,0,1,.52,2.78,7.54,7.54,0,0,1-.51,2.75,7.08,7.08,0,0,1-1.43,2.3,6.78,6.78,0,0,1-2.19,1.56A6.69,6.69,0,0,1,281,534.32Zm-5-7.15a5.8,5.8,0,0,0,.4,2.18,5.91,5.91,0,0,0,1.08,1.76,4.89,4.89,0,0,0,1.6,1.19,4.61,4.61,0,0,0,2,.43,4.49,4.49,0,0,0,2-.44,5.21,5.21,0,0,0,1.61-1.2,5.72,5.72,0,0,0,1.09-1.77,6.15,6.15,0,0,0,0-4.36,5.7,5.7,0,0,0-1.09-1.79,5.21,5.21,0,0,0-1.61-1.2,4.49,4.49,0,0,0-2-.44,4.4,4.4,0,0,0-1.95.44,5.16,5.16,0,0,0-1.6,1.21,5.85,5.85,0,0,0-1.09,1.8A6,6,0,0,0,276,527.16Z" transform="translate(-116.25 -50.97)"/></g><g id="_Group_6" data-name="&lt;Group&gt;"><path id="_Compound_Path_9" data-name="&lt;Compound Path&gt;" class="cls-3" d="M291.67,532.73a1.9,1.9,0,0,1-.56,1.38,2,2,0,1,1-2.77-2.77,1.95,1.95,0,0,1,3.33,1.39Z" transform="translate(-116.25 -50.97)"/><path id="_Compound_Path_10" data-name="&lt;Compound Path&gt;" class="cls-3" d="M293.51,520.44H296v2h.11a4.69,4.69,0,0,1,1.85-1.72,5.3,5.3,0,0,1,2.6-.69,5.2,5.2,0,0,1,4,1.48,5.9,5.9,0,0,1,1.39,4.2v8.84h-2.64v-8.67q-.09-3.44-3.47-3.44a3.3,3.3,0,0,0-2.64,1.28,4.63,4.63,0,0,0-1.06,3.06v7.78h-2.64Z" transform="translate(-116.25 -50.97)"/><path id="_Compound_Path_11" data-name="&lt;Compound Path&gt;" class="cls-3" d="M314.23,535a6.73,6.73,0,0,1-5.11-2.12,7.5,7.5,0,0,1-2-5.37,7.64,7.64,0,0,1,2-5.35,7,7,0,0,1,10-.11,8.09,8.09,0,0,1,1.85,5.67l0,.29H309.81a4.58,4.58,0,0,0,1.38,3.33A4.45,4.45,0,0,0,318.3,530l2.35,1.15A7,7,0,0,1,318,534,7.27,7.27,0,0,1,314.23,535ZM310,525.78h8.07a3.51,3.51,0,0,0-1.19-2.43,4.17,4.17,0,0,0-2.88-1,3.83,3.83,0,0,0-2.57.92A4.38,4.38,0,0,0,310,525.78Z" transform="translate(-116.25 -50.97)"/><path id="_Compound_Path_12" data-name="&lt;Compound Path&gt;" class="cls-3" d="M327.29,534.73a4,4,0,0,1-2.86-1.06,3.94,3.94,0,0,1-1.16-3v-7.86H320.8v-2.41h2.47v-4.31h2.64v4.31h3.44v2.41h-3.44v7a2.56,2.56,0,0,0,.55,1.91,1.77,1.77,0,0,0,1.23.5,2.69,2.69,0,0,0,.62-.07,3.22,3.22,0,0,0,.56-.19l.83,2.35A7.09,7.09,0,0,1,327.29,534.73Z" transform="translate(-116.25 -50.97)"/></g></g><path class="cls-4" d="M299,388.53A7.22,7.22,0,1,0,299.3,403h.16a7.05,7.05,0,0,0,7-7.14v-.25a7.3,7.3,0,0,0-7.46-7.05ZM224.1,388a7.28,7.28,0,0,0-7.05,5.9h14A7.19,7.19,0,0,0,224.1,388Zm-26.57,0a8,8,0,1,0,8,8v-.08a8,8,0,0,0-8-8Z" transform="translate(-116.25 -50.97)"/><path class="cls-4" d="M116.25,51V461h279.5V51Zm239,152.13c-14.6,30.75-31,57.57-52.24,83.65-29.61,4.51-58.48,3.85-90.3.82l20.75-33.3a362.57,362.57,0,0,0,49.95-.41,338.58,338.58,0,0,0,31.25-51,314,314,0,0,0-24.11-40l20.67-33.05C328.34,152.42,343.92,176.53,355.24,203.1ZM327,336.13l-1.48-6.48,11.15-6.15H341v30.43h-7.3V332.44L327,336.13Zm-96.28,11.81a9.56,9.56,0,0,0,4.76-1v-7.79l7.05-.9v12.38c-1.56,1.31-5.33,3.77-12.22,3.77-10.17,0-17.22-7-17.22-15.66s7-15.58,17.39-15.58a25.19,25.19,0,0,1,11.24,2.13l-1.89,6.64a18.58,18.58,0,0,0-9.1-1.89c-5.74,0-9.68,3.36-9.68,8.78s4.26,9.1,9.68,9.1ZM229.1,196.79a26.9,26.9,0,1,1,26.9,26.9A26.92,26.92,0,0,1,229.1,196.79ZM209,106.9a410.37,410.37,0,0,1,90.3-.82l-20.83,33.3a362.58,362.58,0,0,0-49.95.41,324.8,324.8,0,0,0-31.33,51,360.32,360.32,0,0,0,24.19,40l-20.67,33.05c-17.88-23.62-32.4-46.67-44-73.16A386.78,386.78,0,0,1,209,106.9Zm-2.87,216.68V354h-7.63V323.58Zm-13.2,24.11v6.4H170.79V323.66h7.71v24.11l14.43-.08Zm-12,59.79h-4.67v-3a11.6,11.6,0,0,1-8.37,3.53c-6.81,0-12-4.92-12-12.47V375.66h4.84v19.6c0,5.08,3.36,8.37,7.71,8.37s7.79-3.36,7.79-8.45V375.66H181L181,407.48Zm17,.57a11.34,11.34,0,0,1-8.2-3.44v2.87h-4.51V375.74h4.51V387.3a11.34,11.34,0,0,1,8.2-3.44h1.23a12.11,12.11,0,0,1-1.23,24.19Zm26.57-4a7.88,7.88,0,0,0,6.64-3.36l3.28,2.38a12,12,0,0,1-10,4.92h-.49a12.06,12.06,0,0,1,0-24.11c6.64,0,11.56,5.17,11.56,12.06v1.39H216.88a7.9,7.9,0,0,0,7.63,6.73Zm25.83-15.58h-1.89c-3,0-5.08,2.3-5.08,5.9v13.12h-4.59V384.35h4.35v2.79h.16a6.08,6.08,0,0,1,5.41-3h1.64Zm-.9-47.81V323.58h7.63v17.63a6.81,6.81,0,0,0,13.61,0l.08-17.63h7.63v17.06c0,9-5.82,13.78-14.43,13.78S249.44,349.74,249.44,340.64ZM284,381.15H267.73v7.71h15.83v5.25H267.73V402H284v5.49H261.66V375.66H284v5.49Zm2.71-57.57H309V330H294.3v5.49h11.89v6H294.3l.08,6.15h15.09V354H286.75V323.58h-.08Zm25.59,83.9h-6v-2.13a11.92,11.92,0,0,1-7.46,2.71h-.49a12.33,12.33,0,0,1,.57-24.6,11.75,11.75,0,0,1,7.46,2.71V384l5.9-.08v23.54Zm19.68-18.12H325.3v11c0,1.23.9,1.8,2.21,1.8h4.43v5.33h-6.4c-4,0-6.23-2.46-6.23-5.66V389.35H314.8V384h4.51v-6.64h5.9V384h6.64Zm13.61,18.78c-7.38,0-11-3.28-11.73-8.12h5.9c.74,2.62,2.71,3.36,6.15,3.36,2.62,0,4.35-.9,4.35-2.38,0-.9-.66-1.56-2.87-2l-5.66-1.31c-5.17-1.07-7.55-3.28-7.55-6.73,0-4.92,4.35-7.46,10.5-7.46,7.14,0,10.66,3.2,11,8.12h-5.9c-.57-2.62-2.62-3.36-5.41-3.36-2.54,0-4,.82-4,2.3,0,1.07,1,1.64,3.85,2.13l5.08,1.07c4.76,1.07,7.05,3.44,7.05,6.64-.08,4.43-3.94,7.71-10.74,7.71Z" transform="translate(-116.25 -50.97)"/><path class="cls-5" d="M325.22,377.38h-5.9V384H314.8v5.33h4.51v12.47c0,3.12,2.21,5.66,6.23,5.66h6.4v-5.33h-4.43c-1.39,0-2.21-.57-2.21-1.8v-11h6.64V384H325.3l-.08-6.64Zm-63.48,30.1H284v-5.41H267.73v-7.87h15.83v-5.25H267.73v-7.79H284v-5.41H261.74Zm44.53-21.24a11.3,11.3,0,0,0-7.46-2.71A12.42,12.42,0,0,0,287,396.41a12.28,12.28,0,0,0,11.24,11.73h.49a11.75,11.75,0,0,0,7.46-2.71v2.13h5.9V384.1l-5.9.08.08,2.05Zm.08,9.51v.08a7,7,0,0,1-7,7.14h-.16a7.22,7.22,0,1,1,7.05-7.38l.08.16Zm42.81-2.05-5.08-1.07c-2.87-.57-3.85-1.07-3.85-2.13,0-1.48,1.48-2.3,4-2.3,2.79,0,4.92.74,5.41,3.36h5.9c-.33-4.92-3.85-8.12-11-8.12-6.15,0-10.5,2.54-10.5,7.46,0,3.44,2.38,5.66,7.55,6.73l5.66,1.31c2.21.41,2.87,1.07,2.87,2,0,1.48-1.64,2.38-4.35,2.38-3.44,0-5.33-.74-6.15-3.36h-5.9c.74,4.92,4.35,8.12,11.73,8.12,6.81,0,10.66-3.28,10.66-7.79.08-3.12-2.21-5.49-7-6.56Z" transform="translate(-116.25 -50.97)"/><path class="cls-6" d="M243.29,387.22h-.16v-2.79h-4.35v23.13h4.59V394.44c0-3.61,2.13-5.9,5.08-5.9h1.89v-4.26H248.7A6.17,6.17,0,0,0,243.29,387.22ZM235.66,396c0-6.89-4.92-12.06-11.56-12.06a12.06,12.06,0,0,0,0,24.11h.49a12.09,12.09,0,0,0,10-4.92l-3.28-2.38a8.2,8.2,0,0,1-6.64,3.36,7.69,7.69,0,0,1-7.63-6.64h18.7l-.08-1.48ZM217,393.86a7.12,7.12,0,0,1,14,0Zm-40.84,1.48c0,5.08-3.36,8.45-7.79,8.45s-7.71-3.28-7.71-8.37v-19.6h-4.84v19.85c0,7.46,5.25,12.47,12,12.47a11.46,11.46,0,0,0,8.37-3.53v3h4.67V375.9h-4.76l.08,19.44Zm22.88-11.4h-1.23a11.62,11.62,0,0,0-8.2,3.44V375.82h-4.51v31.66h4.51v-2.87a11.48,11.48,0,0,0,8.2,3.44,12.09,12.09,0,0,0,12.63-11.48,12,12,0,0,0-11.4-12.63ZM205.56,396a8,8,0,1,1-8-8A8,8,0,0,1,205.56,396Zm72.83-55.36V323.58h-7.63l-.08,17.63a6.81,6.81,0,0,1-13.61,0V323.58h-7.63v17.06c0,9,5.82,13.78,14.43,13.78S278.39,349.74,278.39,340.64Zm31,7.05H294.3v-6.15h11.89v-6.07H294.3V330H309v-6.4H286.67V354h22.72v-6.32Zm-78.73-17.63a20.39,20.39,0,0,1,9.1,1.89l1.89-6.64a25.2,25.2,0,0,0-11.24-2.13c-10.33,0-17.39,6.89-17.39,15.58s7,15.66,17.22,15.66c6.89,0,10.66-2.46,12.22-3.77V338.26l-7.05.9V347a11.77,11.77,0,0,1-4.76,1c-5.41,0-9.76-3.77-9.76-9.19s4-8.69,9.76-8.69ZM341.13,354V323.58h-4.35l-11.24,6.15,1.48,6.4,6.73-3.53V354h7.38ZM170.79,323.58V354h22.14v-6.32H178.5V323.58Zm27.72,0h7.63V354h-7.63Z" transform="translate(-116.25 -50.97)"/><path class="cls-7" d="M314.72,202.94a345.39,345.39,0,0,1-31.25,51,376,376,0,0,1-49.95.41l-20.75,33.3c31.82,3,60.69,3.77,90.3-.82,21.24-26.08,37.64-52.9,52.24-83.65-11.32-26.49-26.82-50.68-44-73.32l-20.67,33.05A317.27,317.27,0,0,1,314.72,202.94Zm-93.25,27.8a360.32,360.32,0,0,1-24.19-40,332.51,332.51,0,0,1,31.33-51,376,376,0,0,1,49.95-.41L299.38,106a410.42,410.42,0,0,0-90.3.82,386.78,386.78,0,0,0-52.24,83.82c11.56,26.41,26.08,49.54,44,73.16l20.67-33.05Z" transform="translate(-116.25 -50.97)"/><path class="cls-6" d="M256,223.69a26.9,26.9,0,1,0-26.9-26.9A26.92,26.92,0,0,0,256,223.69Z" transform="translate(-116.25 -50.97)"/></svg>