<?xml version="1.0" encoding="UTF-8"?>
<svg xmlns="http://www.w3.org/2000/svg" xmlns:xlink="http://www.w3.org/1999/xlink" width="474.5pt" height="259.2pt" viewBox="0 0 474.5 259.2" version="1.1">
<g id="surface1">
<path style=" stroke:none;fill-rule:evenodd;fill:rgb(100%,100%,100%);fill-opacity:1;" d="M 235.292969 3.777344 C 104.902344 7.578125 0.078125 66.984375 1.207031 136.429688 C 2.335938 205.878906 108.992188 259.117188 239.382813 255.316406 C 369.769531 251.515625 474.597656 192.109375 473.46875 122.660156 C 472.339844 53.214844 365.679688 -0.0234375 235.292969 3.777344 Z M 235.292969 3.777344 "/>
<path style=" stroke:none;fill-rule:evenodd;fill:rgb(76.951599%,67.381287%,46.655273%);fill-opacity:1;" d="M 234.003906 87.328125 C 173.472656 88.578125 124.808594 108.070313 125.335938 130.863281 C 125.527344 139.195313 132.277344 146.816406 143.71875 153.074219 L 200.101563 130.015625 C 199.484375 128.722656 199.15625 127.371094 199.15625 125.992188 C 199.15625 116.363281 214.980469 108.550781 234.492188 108.550781 C 239.621094 108.550781 244.496094 109.089844 248.894531 110.0625 L 292.128906 92.378906 C 275.21875 88.769531 255.292969 86.890625 234.003906 87.328125 Z M 172.640625 163.652344 C 190.589844 168.023438 212.414063 170.359375 235.902344 169.871094 C 296.429688 168.628906 345.09375 149.132813 344.566406 126.34375 C 344.28125 113.847656 329.265625 102.953125 305.785156 95.863281 L 264.578125 116.84375 C 267.90625 119.503906 269.828125 122.636719 269.828125 125.992188 C 269.828125 135.621094 254.003906 143.429688 234.492188 143.429688 C 228.089844 143.429688 222.082031 142.589844 216.902344 141.117188 Z M 172.640625 163.652344 "/>
<path style=" stroke:none;fill-rule:evenodd;fill:rgb(18.041992%,65.429688%,43.920898%);fill-opacity:1;" d="M 370.003906 102.621094 C 371.828125 97.140625 372.699219 91.511719 372.605469 85.789063 C 371.558594 21.28125 285.351563 4.785156 235.332031 6.242188 C 107.5 9.96875 4.730469 68.210938 5.835938 136.296875 C 6.523438 178.539063 47.042969 214.667969 108.140625 235.035156 C 79.296875 219.097656 61.582031 197.441406 61.1875 173.121094 C 60.34375 121.246094 138.644531 76.871094 236.042969 74.035156 C 289.304688 72.480469 337.269531 83.671875 370.003906 102.621094 Z M 370.003906 102.621094 "/>
<path style=" stroke:none;fill-rule:evenodd;fill:rgb(85.15625%,19.604492%,21.166992%);fill-opacity:1;" d="M 106.140625 157.871094 C 104.710938 162.859375 104.011719 167.953125 104.09375 173.121094 C 105.121094 236.386719 189.71875 254.292969 239.339844 252.847656 C 367.171875 249.121094 469.945313 190.882813 468.835938 122.796875 C 468.140625 79.804688 426.1875 43.144531 363.171875 22.90625 C 393.042969 38.847656 411.664063 60.9375 412.070313 85.789063 C 412.910156 137.664063 334.609375 182.039063 237.214844 184.878906 C 185.472656 186.386719 138.714844 175.839844 106.140625 157.871094 Z M 106.140625 157.871094 "/>
<path style=" stroke:none;fill-rule:evenodd;fill:rgb(76.951599%,67.381287%,46.655273%);fill-opacity:1;" d="M 234.492188 113.195313 C 236.53125 113.195313 238.511719 113.308594 240.414063 113.527344 L 208.585938 126.546875 C 208.570313 126.363281 208.558594 126.175781 208.558594 125.992188 C 208.558594 118.925781 220.171875 113.195313 234.492188 113.195313 Z M 257.746094 120.324219 C 259.460938 122.03125 260.425781 123.953125 260.425781 125.992188 C 260.425781 133.058594 248.8125 138.789063 234.492188 138.789063 C 230.65625 138.789063 227.015625 138.371094 223.738281 137.636719 Z M 257.746094 120.324219 "/>
</g>
</svg>
